<svg aria-hidden="true" style="width:0;height:0;position:absolute;overflow:hidden" xmlns="http://www.w3.org/2000/svg"><defs><symbol id="icon-whatsapp" viewBox="0 0 32 32"><path opacity=".08" d="M31.448 16c0 8.532-6.916 15.448-15.448 15.448S.552 24.532.552 16 7.468.552 16 .552 31.448 7.468 31.448 16z"/><path fill="none" stroke="#fff" style="stroke:var(--color1,#fff)" stroke-width=".828" d="M31.448 16c0 8.532-6.916 15.448-15.448 15.448S.552 24.532.552 16 7.468.552 16 .552 31.448 7.468 31.448 16z"/><path fill-rule="evenodd" clip-rule="evenodd" fill="#fff" style="fill:var(--color1,#fff)" d="M21.211 10.803a6.752 6.752 0 0 1 1.492 2.152c.362.841.548 1.728.543 2.651 0 .917-.187 1.811-.548 2.646-.351.805-.854 1.529-1.492 2.152s-1.379 1.105-2.205 1.446a7.001 7.001 0 0 1-2.691.529c-1.001 0-1.956-.2-2.855-.6l-3.007 1.393.565-3.204a6.662 6.662 0 0 1-1.086-7.014c.35-.805.854-1.529 1.492-2.152s1.379-1.105 2.205-1.446c.854-.353 1.758-.529 2.691-.529a7.001 7.001 0 0 1 4.896 1.975zm-2.742 5.843c.153.059.367.153.661.306.079.042.163.078.247.114.138.059.277.118.403.21.102.141.13.259.062.57-1.334 3.586-7.891-1.617-6.8-4.351.181-.429.622-1.252 1.391-.841.12.062.171.195.221.327.025.067.05.133.085.19.074.162.155.347.225.506l.108.246a.67.67 0 0 0 .049.117c.08.166.19.397-.088.724a.989.989 0 0 1-.137.175c-.107.12-.23.258-.219.372.09.17.509.805.735 1.029.509.512 1.159 1.011 1.86 1.152.165-.065.325-.298.479-.522.109-.159.215-.313.318-.401.068-.055.243.014.352.057l.049.019z"/></symbol><symbol id="icon-facebook" viewBox="0 0 32 32"><path opacity=".08" d="M31.448 16c0 8.532-6.916 15.448-15.448 15.448S.552 24.532.552 16 7.468.552 16 .552 31.448 7.468 31.448 16z"/><path fill="none" stroke="#fff" style="stroke:var(--color1,#fff)" stroke-width=".828" d="M31.448 16c0 8.532-6.916 15.448-15.448 15.448S.552 24.532.552 16 7.468.552 16 .552 31.448 7.468 31.448 16z"/><path fill="#fff" style="fill:var(--color1,#fff)" d="M16.91 16.846v5.774h-2.606v-5.774h-2.165v-2.341h2.165v-.852c0-3.163 1.298-4.826 4.045-4.826.842 0 1.053.138 1.514.25v2.316c-.516-.092-.662-.143-1.198-.143-.637 0-.977.184-1.288.546s-.466.99-.466 1.887v.826h2.952l-.792 2.341h-2.16v-.005z"/></symbol><symbol id="icon-twitter" viewBox="0 0 32 32"><path opacity=".08" d="M31.448 16c0 8.532-6.916 15.448-15.448 15.448S.552 24.532.552 16 7.468.552 16 .552 31.448 7.468 31.448 16z"/><path fill="none" stroke="#fff" style="stroke:var(--color1,#fff)" stroke-width=".828" d="M31.448 16c0 8.532-6.916 15.448-15.448 15.448S.552 24.532.552 16 7.468.552 16 .552 31.448 7.468 31.448 16z"/><path fill="#fff" style="fill:var(--color1,#fff)" d="M21.599 13.573c.018.074.028.193.028.359 0 .975-.184 1.949-.552 2.924a9.27 9.27 0 0 1-1.572 2.648c-.662.791-1.526 1.434-2.593 1.931s-2.244.745-3.531.745a8.026 8.026 0 0 1-4.057-1.063c-.1-.057-.051-.212.065-.209.077.002.158.003.241.003a5.748 5.748 0 0 0 3.614-1.241 2.794 2.794 0 0 1-1.71-.552 3.001 3.001 0 0 1-.937-1.275c-.028-.074.033-.15.112-.145.123.009.242.013.356.013.257 0 .515-.028.772-.083-.441-.092-.837-.276-1.186-.552s-.625-.607-.828-.993a2.934 2.934 0 0 1-.298-1.158c-.005-.085.088-.139.164-.1.355.18.731.277 1.127.293-.864-.589-1.297-1.398-1.297-2.428 0-.464.112-.905.335-1.324.036-.068.13-.074.179-.015a8.04 8.04 0 0 0 5.858 2.911 3.996 3.996 0 0 1-.055-.662c0-.791.276-1.471.828-2.041.57-.57 1.251-.855 2.041-.855.846 0 1.554.303 2.124.91a5.932 5.932 0 0 0 1.595-.551c.09-.046.191.038.151.131a2.87 2.87 0 0 1-1.168 1.33 6.06 6.06 0 0 0 1.299-.326c.104-.038.198.08.13.167a6.334 6.334 0 0 1-1.235 1.207z"/></symbol><symbol id="icon-telegram" viewBox="0 0 32 32"><path opacity=".08" d="M31.448 16c0 8.532-6.916 15.448-15.448 15.448S.552 24.532.552 16 7.468.552 16 .552 31.448 7.468 31.448 16z"/><path fill="none" stroke="#fff" style="stroke:var(--color1,#fff)" stroke-width=".828" d="M31.448 16c0 8.532-6.916 15.448-15.448 15.448S.552 24.532.552 16 7.468.552 16 .552 31.448 7.468 31.448 16z"/><path fill="#fff" style="fill:var(--color1,#fff)" d="m22.375 9.907-13.043 5.03c-.89.358-.885.854-.163 1.075l3.349 1.045 7.748-4.888c.366-.223.701-.103.426.141l-6.277 5.666-.231 3.452c.338 0 .488-.155.678-.338l1.626-1.582 3.383 2.499c.624.344 1.072.167 1.227-.578l2.221-10.467c.227-.911-.348-1.324-.943-1.055z"/></symbol><symbol id="icon-instagram" viewBox="0 0 32 32"><path opacity=".08" d="M31.448 16c0 8.532-6.916 15.448-15.448 15.448S.552 24.532.552 16 7.468.552 16 .552 31.448 7.468 31.448 16z"/><path fill="none" stroke="#fff" style="stroke:var(--color1,#fff)" stroke-width=".828" d="M31.448 16c0 8.532-6.916 15.448-15.448 15.448S.552 24.532.552 16 7.468.552 16 .552 31.448 7.468 31.448 16z"/><path fill="#fff" style="fill:var(--color1,#fff)" d="M8.936 12.469v7.062c0 1.236 0 1.854.241 2.326.212.415.549.753.964.964.472.241 1.09.241 2.326.241h7.062c1.236 0 1.854 0 2.326-.241.415-.212.753-.549.964-.964.241-.472.241-1.09.241-2.326v-7.062c0-1.236 0-1.854-.241-2.326a2.207 2.207 0 0 0-.964-.964c-.472-.241-1.09-.241-2.326-.241h-7.062c-1.236 0-1.854 0-2.326.241a2.207 2.207 0 0 0-.964.964c-.241.472-.241 1.09-.241 2.326zM18.647 16a2.648 2.648 0 1 1-5.296 0 2.648 2.648 0 0 1 5.296 0zm1.765-3.531a.883.883 0 1 1 0-1.765.883.883 0 0 1 0 1.765z"/></symbol></defs></svg>