<svg version="1.0" xmlns="http://www.w3.org/2000/svg" width="4094.667" height="4094.667" viewBox="0 0 3071 3071"><path d="M1678.2 188.2c.3.7 45.5 141.6 100.4 313.2l99.9 311.8 16 8c53.1 26.6 105.5 60.8 152 99.3 39.1 32.5 81.2 75.3 113.1 115 55.4 68.9 99.5 147.8 129.6 231.5 22.1 61.8 36.7 128.4 43.4 199 2.1 22.6 3 92.1 1.5 117.2-6.9 113.4-35.3 217.4-86.9 318.2-25 48.8-54.2 93.6-89.6 137.6-33.3 41.4-78.7 86.6-121.1 120.6-69 55.4-147.2 99.2-231.5 129.6-61.9 22.3-127.8 36.6-200 43.5-23.4 2.2-109 2.6-132 .5-86.6-7.7-163.8-26-238.8-56.6-100.8-41.1-190.8-101.6-267.8-179.8-39.5-40.1-67.3-74.4-98-120.8-18.3-27.8-28.9-45.9-44-75.5-51.3-100.5-79.6-204.3-86.5-317.3-1.5-25.1-.6-94.6 1.5-117.2 9.8-103.1 35.5-194.8 79.6-284 13.3-26.7 23.1-44.5 37.3-67 6-9.6 11-18 11-18.5 0-.6-53-128.1-117.8-283.5-64.7-155.4-118.1-283.6-118.6-284.8-.9-2.3-1.3-2-11.2 6.9-15.7 14.3-74.7 73.7-89.3 89.9-73.9 82.1-136.8 170.8-186.9 263.5-5.9 11-12.3 22.2-14.3 25-86 123.6-133.7 259.5-143.2 408-.5 8.8-1 32.8-1 53.3 0 23.5-.5 44.5-1.5 57-2.7 35.7-3.5 60-3.5 104.6 0 55.2 1.9 94.1 7.1 143.1 27.1 257.8 127.8 501.9 291 705.1 32.8 40.9 56.4 67 98.9 109.4 33.5 33.6 49.5 48.5 77.4 72.4 165.9 142.1 365.8 242.8 577.6 291 78.5 17.9 154 28.2 239 32.6 25.2 1.3 103.8 1.3 129 0 129-6.7 246.1-28.4 363.5-67.5 178.4-59.2 339.9-153.6 482.5-281.9 18.7-16.8 77.8-75.9 94.6-94.6 53.1-59 99.5-119.9 140.1-184 113.4-178.7 182.5-378.3 203.8-588.5 5.2-51.6 6-68.5 6-138s-.8-86.4-6-138c-29.2-288.3-147.7-554.4-343.9-772.5-16.8-18.7-75.9-77.8-94.6-94.6-142.6-128.3-304.1-222.7-482.5-281.9-86.5-28.8-172.8-48-266.4-59.5-19.4-2.4-19.4-2.4-18.9-.8z"/><path d="M1340 193.5c-146.6 21.7-280.5 63.6-410 128.5-48.3 24.1-97.5 52.1-96.7 54.9.5 1.9 146 391.3 147.8 395.6.6 1.6 1.3 3.5 1.4 4.1.4 1.7 50.6 135.9 51.1 136.3.4.5-.3 1 22.3-16.1 109.2-82.8 241.7-136.7 378.1-153.7 31.6-4 59.4-6.1 81.4-6.1h13.8l-.7-2.8c-.3-1.5-36.6-121.5-80.6-266.7-44-145.2-80.9-267-82.1-270.8-1.1-3.7-2.3-6.7-2.6-6.6-.4 0-10.8 1.6-23.2 3.4z"/></svg>