<svg aria-hidden="true" style="width:0;height:0;position:absolute;overflow:hidden" xmlns="http://www.w3.org/2000/svg"><defs><symbol id="icon-arrow_top" viewBox="0 0 32 32"><path fill="#fff" style="fill:var(--color1,#fff)" opacity=".04" d="M31.448 16c0 8.532-6.916 15.448-15.448 15.448S.552 24.532.552 16 7.468.552 16 .552 31.448 7.468 31.448 16z"/><path fill="none" stroke-width=".828" d="M31.448 16c0 8.532-6.916 15.448-15.448 15.448S.552 24.532.552 16 7.468.552 16 .552 31.448 7.468 31.448 16z"/><path fill="none" stroke-linecap="round" stroke-width="1.379" d="M12.138 17.104 16 13.356l3.862 3.748"/></symbol><symbol id="icon-arrow_down" viewBox="0 0 32 32"><path fill="#fff" style="fill:var(--color1,#fff)" opacity=".04" d="M31.484 16c0 8.552-6.932 15.484-15.484 15.484S.516 24.552.516 16 7.448.516 16 .516 31.484 7.448 31.484 16z"/><path fill="none" stroke-width=".774" d="M31.484 16c0 8.552-6.932 15.484-15.484 15.484S.516 24.552.516 16 7.448.516 16 .516 31.484 7.448 31.484 16z"/><path fill="none" stroke-linejoin="round" stroke-linecap="round" stroke-width="1.032" d="m11.196 13.538 4.759 3.931 4.849-3.931"/><path fill="none" stroke-linejoin="round" stroke-linecap="round" stroke-width="1.032" d="m11.196 17.032 4.759 3.931 4.849-3.931"/></symbol></defs></svg>