<svg aria-hidden="true" style="position: absolute; width: 0; height: 0; overflow: hidden;" version="1.1" xmlns="http://www.w3.org/2000/svg" xmlns:xlink="http://www.w3.org/1999/xlink">
<defs>
<symbol id="icon-whatsapp" viewBox="0 0 32 32">
<path  opacity="0.08" d="M31.448 16c0 8.532-6.916 15.448-15.448 15.448s-15.448-6.916-15.448-15.448c0-8.532 6.916-15.448 15.448-15.448s15.448 6.916 15.448 15.448z"></path>
<path fill="none" stroke="#fff" style="stroke: var(--color1, #fff)" stroke-linejoin="miter" stroke-linecap="butt" stroke-miterlimit="4" stroke-width="0.8276" d="M31.448 16c0 8.532-6.916 15.448-15.448 15.448s-15.448-6.916-15.448-15.448c0-8.532 6.916-15.448 15.448-15.448s15.448 6.916 15.448 15.448z"></path>
<path fill-rule="evenodd" clip-rule="evenodd" fill="#fff" style="fill: var(--color1, #fff)" d="M21.211 10.803c0.639 0.623 1.142 1.346 1.492 2.152 0.362 0.841 0.548 1.728 0.543 2.651 0 0.917-0.187 1.811-0.548 2.646-0.351 0.805-0.854 1.529-1.492 2.152s-1.379 1.105-2.205 1.446c-0.854 0.353-1.758 0.529-2.691 0.529-1.001 0-1.956-0.2-2.855-0.6l-3.007 1.393 0.565-3.204c-1.057-1.223-1.634-2.763-1.634-4.368 0-0.917 0.187-1.811 0.548-2.646 0.35-0.805 0.854-1.529 1.492-2.152s1.379-1.105 2.205-1.446c0.854-0.353 1.758-0.529 2.691-0.529s1.837 0.176 2.691 0.529c0.825 0.341 1.566 0.829 2.205 1.446zM18.469 16.646c0.153 0.059 0.367 0.153 0.661 0.306 0.079 0.042 0.163 0.078 0.247 0.114 0.138 0.059 0.277 0.118 0.403 0.21 0.102 0.141 0.13 0.259 0.062 0.57-1.334 3.586-7.891-1.617-6.8-4.351 0.181-0.429 0.622-1.252 1.391-0.841 0.12 0.062 0.171 0.195 0.221 0.327 0.025 0.067 0.050 0.133 0.085 0.19 0.074 0.162 0.155 0.347 0.225 0.506 0.041 0.095 0.079 0.18 0.108 0.246 0.009 0.035 0.028 0.074 0.049 0.117 0.080 0.166 0.19 0.397-0.088 0.724-0.024 0.048-0.078 0.109-0.137 0.175-0.107 0.12-0.23 0.258-0.219 0.372 0.090 0.17 0.509 0.805 0.735 1.029 0.509 0.512 1.159 1.011 1.86 1.152 0.165-0.065 0.325-0.298 0.479-0.522 0.109-0.159 0.215-0.313 0.318-0.401 0.068-0.055 0.243 0.014 0.352 0.057 0.019 0.007 0.035 0.014 0.049 0.019z"></path>
</symbol>
<symbol id="icon-facebook" viewBox="0 0 32 32">
<path  opacity="0.08" d="M31.448 16c0 8.532-6.916 15.448-15.448 15.448s-15.448-6.916-15.448-15.448c0-8.532 6.916-15.448 15.448-15.448s15.448 6.916 15.448 15.448z"></path>
<path fill="none" stroke="#fff" style="stroke: var(--color1, #fff)" stroke-linejoin="miter" stroke-linecap="butt" stroke-miterlimit="4" stroke-width="0.8276" d="M31.448 16c0 8.532-6.916 15.448-15.448 15.448s-15.448-6.916-15.448-15.448c0-8.532 6.916-15.448 15.448-15.448s15.448 6.916 15.448 15.448z"></path>
<path fill="#fff" style="fill: var(--color1, #fff)" d="M16.91 16.846v5.774h-2.606v-5.774h-2.165v-2.341h2.165v-0.852c0-3.163 1.298-4.826 4.045-4.826 0.842 0 1.053 0.138 1.514 0.25v2.316c-0.516-0.092-0.662-0.143-1.198-0.143-0.637 0-0.977 0.184-1.288 0.546s-0.466 0.99-0.466 1.887v0.826h2.952l-0.792 2.341h-2.16v-0.005z"></path>
</symbol>
<symbol id="icon-twitter" viewBox="0 0 32 32">
<path  opacity="0.08" d="M31.448 16c0 8.532-6.916 15.448-15.448 15.448s-15.448-6.916-15.448-15.448c0-8.532 6.916-15.448 15.448-15.448s15.448 6.916 15.448 15.448z"></path>
<path fill="none" stroke="#fff" style="stroke: var(--color1, #fff)" stroke-linejoin="miter" stroke-linecap="butt" stroke-miterlimit="4" stroke-width="0.8276" d="M31.448 16c0 8.532-6.916 15.448-15.448 15.448s-15.448-6.916-15.448-15.448c0-8.532 6.916-15.448 15.448-15.448s15.448 6.916 15.448 15.448z"></path>
<path fill="#fff" style="fill: var(--color1, #fff)" d="M21.599 13.573c0.018 0.074 0.028 0.193 0.028 0.359 0 0.975-0.184 1.949-0.552 2.924-0.368 0.956-0.892 1.839-1.572 2.648-0.662 0.791-1.526 1.434-2.593 1.931s-2.244 0.745-3.531 0.745c-1.466 0-2.818-0.354-4.057-1.063-0.1-0.057-0.051-0.212 0.065-0.209 0.077 0.002 0.158 0.003 0.241 0.003 1.342 0 2.547-0.414 3.614-1.241-0.644 0-1.214-0.184-1.71-0.552-0.433-0.35-0.745-0.775-0.937-1.275-0.028-0.074 0.033-0.15 0.112-0.145 0.123 0.009 0.242 0.013 0.356 0.013 0.257 0 0.515-0.028 0.772-0.083-0.441-0.092-0.837-0.276-1.186-0.552s-0.625-0.607-0.828-0.993c-0.182-0.365-0.276-0.756-0.298-1.158-0.005-0.085 0.088-0.139 0.164-0.1 0.355 0.18 0.731 0.277 1.127 0.293-0.864-0.589-1.297-1.398-1.297-2.428 0-0.464 0.112-0.905 0.335-1.324 0.036-0.068 0.13-0.074 0.179-0.015 0.698 0.843 1.538 1.519 2.52 2.028 1.048 0.533 2.161 0.828 3.338 0.883-0.037-0.221-0.055-0.441-0.055-0.662 0-0.791 0.276-1.471 0.828-2.041 0.57-0.57 1.251-0.855 2.041-0.855 0.846 0 1.554 0.303 2.124 0.91 0.565-0.11 1.097-0.294 1.595-0.551 0.090-0.046 0.191 0.038 0.151 0.131-0.238 0.553-0.627 0.997-1.168 1.33 0.433-0.058 0.866-0.166 1.299-0.326 0.104-0.038 0.198 0.080 0.13 0.167-0.356 0.458-0.768 0.861-1.235 1.207z"></path>
</symbol>
<symbol id="icon-telegram" viewBox="0 0 32 32">
<path  opacity="0.08" d="M31.448 16c0 8.532-6.916 15.448-15.448 15.448s-15.448-6.916-15.448-15.448c0-8.532 6.916-15.448 15.448-15.448s15.448 6.916 15.448 15.448z"></path>
<path fill="none" stroke="#fff" style="stroke: var(--color1, #fff)" stroke-linejoin="miter" stroke-linecap="butt" stroke-miterlimit="4" stroke-width="0.8276" d="M31.448 16c0 8.532-6.916 15.448-15.448 15.448s-15.448-6.916-15.448-15.448c0-8.532 6.916-15.448 15.448-15.448s15.448 6.916 15.448 15.448z"></path>
<path fill="#fff" style="fill: var(--color1, #fff)" d="M22.375 9.907l-13.043 5.030c-0.89 0.358-0.885 0.854-0.163 1.075l3.349 1.045 7.748-4.888c0.366-0.223 0.701-0.103 0.426 0.141l-6.277 5.666-0.231 3.452c0.338 0 0.488-0.155 0.678-0.338l1.626-1.582 3.383 2.499c0.624 0.344 1.072 0.167 1.227-0.578l2.221-10.467c0.227-0.911-0.348-1.324-0.943-1.055z"></path>
</symbol>
<symbol id="icon-instagram" viewBox="0 0 32 32">
<path  opacity="0.08" d="M31.448 16c0 8.532-6.916 15.448-15.448 15.448s-15.448-6.916-15.448-15.448c0-8.532 6.916-15.448 15.448-15.448s15.448 6.916 15.448 15.448z"></path>
<path fill="none" stroke="#fff" style="stroke: var(--color1, #fff)" stroke-linejoin="miter" stroke-linecap="butt" stroke-miterlimit="4" stroke-width="0.8276" d="M31.448 16c0 8.532-6.916 15.448-15.448 15.448s-15.448-6.916-15.448-15.448c0-8.532 6.916-15.448 15.448-15.448s15.448 6.916 15.448 15.448z"></path>
<path fill="#fff" style="fill: var(--color1, #fff)" d="M8.936 12.469v7.062c0 1.236 0 1.854 0.241 2.326 0.212 0.415 0.549 0.753 0.964 0.964 0.472 0.241 1.090 0.241 2.326 0.241h7.062c1.236 0 1.854 0 2.326-0.241 0.415-0.212 0.753-0.549 0.964-0.964 0.241-0.472 0.241-1.090 0.241-2.326v-7.062c0-1.236 0-1.854-0.241-2.326-0.212-0.415-0.549-0.753-0.964-0.964-0.472-0.241-1.090-0.241-2.326-0.241h-7.062c-1.236 0-1.854 0-2.326 0.241-0.415 0.212-0.753 0.549-0.964 0.964-0.241 0.472-0.241 1.090-0.241 2.326zM18.647 16c0 1.463-1.186 2.648-2.648 2.648s-2.648-1.186-2.648-2.648c0-1.463 1.186-2.648 2.648-2.648s2.648 1.186 2.648 2.648zM20.412 12.469c-0.488 0-0.883-0.395-0.883-0.883s0.395-0.883 0.883-0.883c0.488 0 0.883 0.395 0.883 0.883s-0.395 0.883-0.883 0.883z"></path>
</symbol>
</defs>
</svg>
