<?xml version="1.0" standalone="no"?>
<!DOCTYPE svg PUBLIC "-//W3C//DTD SVG 20010904//EN"
 "http://www.w3.org/TR/2001/REC-SVG-20010904/DTD/svg10.dtd">
<svg version="1.0" xmlns="http://www.w3.org/2000/svg"
 width="3071.000000pt" height="3071.000000pt" viewBox="0 0 3071.000000 3071.000000"
 preserveAspectRatio="xMidYMid meet">
<metadata>
Created by potrace 1.14, written by Peter Selinger 2001-2017
</metadata>
<g transform="translate(0.000000,3071.000000) scale(0.100000,-0.100000)"
fill="#000000" stroke="none">
<path d="M16782 28828 c3 -7 455 -1416 1004 -3132 l999 -3118 160 -80 c531
-266 1055 -608 1520 -993 391 -325 812 -753 1131 -1150 554 -689 995 -1478
1296 -2315 221 -618 367 -1284 434 -1990 21 -226 30 -921 15 -1172 -69 -1134
-353 -2174 -869 -3182 -250 -488 -542 -936 -896 -1376 -333 -414 -787 -866
-1211 -1206 -690 -554 -1472 -992 -2315 -1296 -619 -223 -1278 -366 -2000
-435 -234 -22 -1090 -26 -1320 -5 -866 77 -1638 260 -2388 566 -1008 411
-1908 1016 -2678 1798 -395 401 -673 744 -980 1208 -183 278 -289 459 -440
755 -513 1005 -796 2043 -865 3173 -15 251 -6 946 15 1172 98 1031 355 1948
796 2840 133 267 231 445 373 670 60 96 110 180 110 185 0 6 -530 1281 -1178
2835 -647 1554 -1181 2836 -1186 2848 -9 23 -13 20 -112 -69 -157 -143 -747
-737 -893 -899 -739 -821 -1368 -1708 -1869 -2635 -59 -110 -123 -222 -143
-250 -860 -1236 -1337 -2595 -1432 -4080 -5 -88 -10 -328 -10 -533 0 -235 -5
-445 -15 -570 -27 -357 -35 -600 -35 -1046 0 -552 19 -941 71 -1431 271 -2578
1278 -5019 2910 -7051 328 -409 564 -670 989 -1094 335 -336 495 -485 774
-724 1659 -1421 3658 -2428 5776 -2910 785 -179 1540 -282 2390 -326 252 -13
1038 -13 1290 0 1290 67 2461 284 3635 675 1784 592 3399 1536 4825 2819 187
168 778 759 946 946 531 590 995 1199 1401 1840 1134 1787 1825 3783 2038
5885 52 516 60 685 60 1380 0 695 -8 864 -60 1380 -292 2883 -1477 5544 -3439
7725 -168 187 -759 778 -946 946 -1426 1283 -3041 2227 -4825 2819 -865 288
-1728 480 -2664 595 -194 24 -194 24 -189 8z"/>
<path d="M13400 28775 c-1466 -217 -2805 -636 -4100 -1285 -483 -241 -975
-521 -967 -549 5 -19 1460 -3913 1478 -3956 6 -16 13 -35 14 -41 4 -17 506
-1359 511 -1363 4 -5 -3 -10 223 161 1092 828 2417 1367 3781 1537 316 40 594
61 814 61 l138 0 -7 28 c-3 15 -366 1215 -806 2667 -440 1452 -809 2670 -821
2708 -11 37 -23 67 -26 66 -4 0 -108 -16 -232 -34z"/>
</g>
</svg>
